<svg width="192" height="21" viewBox="0 0 192 21" fill="none" xmlns="http://www.w3.org/2000/svg">
<path d="M7.38266 4.25531C7.59599 3.69265 8.40332 3.69265 8.61732 4.25531L9.99732 8.07798C10.094 8.33131 10.34 8.49998 10.6147 8.49998H14.006C14.6327 8.49998 14.906 9.27998 14.4133 9.66198L12 11.8333C11.8919 11.9164 11.8129 12.0316 11.7743 12.1624C11.7358 12.2932 11.7396 12.4328 11.7853 12.5613L12.6667 16.2966C12.8813 16.8966 12.1867 17.412 11.6613 17.0426L8.38332 14.9626C8.27106 14.8838 8.1372 14.8414 7.99999 14.8414C7.86278 14.8414 7.72891 14.8838 7.61666 14.9626L4.33866 17.0426C3.81399 17.412 3.11866 16.896 3.33332 16.2966L4.21466 12.5613C4.26038 12.4328 4.26423 12.2932 4.22566 12.1624C4.1871 12.0316 4.10809 11.9164 3.99999 11.8333L1.58666 9.66198C1.09332 9.27998 1.36799 8.49998 1.99332 8.49998H5.38466C5.51818 8.50042 5.6487 8.46032 5.75893 8.38496C5.86917 8.30961 5.95393 8.20256 6.00199 8.07798L7.38199 4.25531H7.38266Z" fill="#F7AB3A" stroke="#F7AB3A" stroke-width="0.5" stroke-linecap="round" stroke-linejoin="round"/>
<path d="M29.3827 4.25531C29.596 3.69265 30.4033 3.69265 30.6173 4.25531L31.9973 8.07798C32.094 8.33131 32.34 8.49998 32.6147 8.49998H36.006C36.6327 8.49998 36.906 9.27998 36.4133 9.66198L34 11.8333C33.8919 11.9164 33.8129 12.0316 33.7743 12.1624C33.7358 12.2932 33.7396 12.4328 33.7853 12.5613L34.6667 16.2966C34.8813 16.8966 34.1867 17.412 33.6613 17.0426L30.3833 14.9626C30.2711 14.8838 30.1372 14.8414 30 14.8414C29.8628 14.8414 29.7289 14.8838 29.6167 14.9626L26.3387 17.0426C25.814 17.412 25.1187 16.896 25.3333 16.2966L26.2147 12.5613C26.2604 12.4328 26.2642 12.2932 26.2257 12.1624C26.1871 12.0316 26.1081 11.9164 26 11.8333L23.5867 9.66198C23.0933 9.27998 23.368 8.49998 23.9933 8.49998H27.3847C27.5182 8.50042 27.6487 8.46032 27.7589 8.38496C27.8692 8.30961 27.9539 8.20256 28.002 8.07798L29.382 4.25531H29.3827Z" fill="#F7AB3A"/>
<path d="M51.3827 4.25531C51.596 3.69265 52.4033 3.69265 52.6173 4.25531L53.9973 8.07798C54.094 8.33131 54.34 8.49998 54.6147 8.49998H58.006C58.6327 8.49998 58.906 9.27998 58.4133 9.66198L56 11.8333C55.8919 11.9164 55.8129 12.0316 55.7743 12.1624C55.7358 12.2932 55.7396 12.4328 55.7853 12.5613L56.6667 16.2966C56.8813 16.8966 56.1867 17.412 55.6613 17.0426L52.3833 14.9626C52.2711 14.8838 52.1372 14.8414 52 14.8414C51.8628 14.8414 51.7289 14.8838 51.6167 14.9626L48.3387 17.0426C47.814 17.412 47.1187 16.896 47.3333 16.2966L48.2147 12.5613C48.2604 12.4328 48.2642 12.2932 48.2257 12.1624C48.1871 12.0316 48.1081 11.9164 48 11.8333L45.5867 9.66198C45.0933 9.27998 45.368 8.49998 45.9933 8.49998H49.3847C49.5182 8.50042 49.6487 8.46032 49.7589 8.38496C49.8692 8.30961 49.9539 8.20256 50.002 8.07798L51.382 4.25531H51.3827Z" fill="#F7AB3A"/>
<path d="M73.3827 4.25531C73.596 3.69265 74.4033 3.69265 74.6173 4.25531L75.9973 8.07798C76.094 8.33131 76.34 8.49998 76.6147 8.49998H80.006C80.6327 8.49998 80.906 9.27998 80.4133 9.66198L78 11.8333C77.8919 11.9164 77.8129 12.0316 77.7743 12.1624C77.7358 12.2932 77.7396 12.4329 77.7853 12.5613L78.6667 16.2966C78.8813 16.8966 78.1867 17.412 77.6613 17.0426L74.3833 14.9626C74.2711 14.8838 74.1372 14.8414 74 14.8414C73.8628 14.8414 73.7289 14.8838 73.6167 14.9626L70.3387 17.0426C69.814 17.412 69.1187 16.896 69.3333 16.2966L70.2147 12.5613C70.2604 12.4329 70.2642 12.2932 70.2257 12.1624C70.1871 12.0316 70.1081 11.9164 70 11.8333L67.5867 9.66198C67.0933 9.27998 67.368 8.49998 67.9933 8.49998H71.3847C71.5182 8.50042 71.6487 8.46032 71.7589 8.38496C71.8692 8.30961 71.9539 8.20256 72.002 8.07798L73.382 4.25531H73.3827Z" stroke="#C4CDD5" stroke-width="0.5" stroke-linecap="round" stroke-linejoin="round"/>
<path d="M95.3827 4.25531C95.596 3.69265 96.4033 3.69265 96.6173 4.25531L97.9973 8.07798C98.094 8.33131 98.34 8.49998 98.6147 8.49998H102.006C102.633 8.49998 102.906 9.27998 102.413 9.66198L100 11.8333C99.8919 11.9164 99.8129 12.0316 99.7743 12.1624C99.7358 12.2932 99.7396 12.4329 99.7853 12.5613L100.667 16.2966C100.881 16.8966 100.187 17.412 99.6613 17.0426L96.3833 14.9626C96.2711 14.8838 96.1372 14.8414 96 14.8414C95.8628 14.8414 95.7289 14.8838 95.6167 14.9626L92.3387 17.0426C91.814 17.412 91.1187 16.896 91.3333 16.2966L92.2147 12.5613C92.2604 12.4329 92.2642 12.2932 92.2257 12.1624C92.1871 12.0316 92.1081 11.9164 92 11.8333L89.5867 9.66198C89.0933 9.27998 89.368 8.49998 89.9933 8.49998H93.3847C93.5182 8.50042 93.6487 8.46032 93.7589 8.38496C93.8692 8.30961 93.9539 8.20256 94.002 8.07798L95.382 4.25531H95.3827Z" stroke="#C4CDD5" stroke-width="0.5" stroke-linecap="round" stroke-linejoin="round"/>
<path d="M115.339 17.2852H116.266C115.345 16.1108 114.66 13.5845 114.66 11.3628C114.66 9.16016 115.345 6.61475 116.266 5.44043H115.339C114.095 7.08447 113.536 9.00781 113.536 11.3628C113.536 13.7241 114.101 15.6411 115.339 17.2852ZM120.227 15H121.369V5.84033H120.233L117.795 7.59229V8.79834L120.125 7.10986H120.227V15ZM124.016 15H129.945V13.9717H125.603V13.8701L127.685 11.7183C129.342 10.0107 129.792 9.24902 129.792 8.20166V8.18896C129.792 6.70996 128.567 5.62451 126.968 5.62451C125.216 5.62451 123.959 6.79248 123.953 8.41748L123.965 8.42383L125.057 8.43018L125.063 8.41748C125.063 7.33838 125.793 6.62109 126.892 6.62109C127.971 6.62109 128.625 7.34473 128.625 8.30957V8.32227C128.625 9.12207 128.282 9.59814 127.114 10.8613L124.016 14.2129V15ZM132.465 17.2852C133.703 15.6411 134.268 13.7241 134.268 11.3628C134.268 9.00781 133.709 7.08447 132.465 5.44043H131.538C132.458 6.61475 133.144 9.16016 133.144 11.3628C133.144 13.5845 132.458 16.1108 131.538 17.2852H132.465ZM143.364 15.1206C145.312 15.1206 146.519 13.7749 146.519 11.585V11.5723C146.519 9.37598 145.312 8.03662 143.364 8.03662C141.415 8.03662 140.209 9.37598 140.209 11.5723V11.585C140.209 13.7749 141.415 15.1206 143.364 15.1206ZM143.364 14.1431C142.069 14.1431 141.339 13.1973 141.339 11.585V11.5723C141.339 9.95361 142.069 9.01416 143.364 9.01416C144.659 9.01416 145.389 9.95361 145.389 11.5723V11.585C145.389 13.1973 144.659 14.1431 143.364 14.1431ZM152.866 8.15723H147.331V9.07129H149.546V15H150.651V9.07129H152.866V8.15723ZM156.726 15.127C158.319 15.127 159.417 14.2573 159.417 12.9878V12.9751C159.417 12.2134 158.941 11.6675 158.04 11.4707V11.3691C158.719 11.2104 159.169 10.582 159.169 9.89014V9.87744C159.169 8.78564 158.293 8.03027 156.764 8.03027C155.367 8.03027 154.364 8.72852 154.206 9.82666L154.199 9.87109H155.278L155.285 9.83936C155.393 9.29346 155.983 8.94434 156.764 8.94434C157.64 8.94434 158.09 9.37598 158.09 9.95996V9.97266C158.09 10.6836 157.602 11.0327 156.726 11.0327H155.659V11.9468H156.726C157.773 11.9468 158.332 12.2896 158.332 13.0322V13.0449C158.332 13.7241 157.735 14.2129 156.726 14.2129C155.894 14.2129 155.285 13.8574 155.145 13.2988L155.132 13.248H154.009L154.015 13.2988C154.155 14.4033 155.266 15.127 156.726 15.127ZM161.251 15H163.695C165.263 15 166.266 14.0986 166.266 12.6831V12.6704C166.266 11.2549 165.263 10.3535 163.695 10.3535H162.356V8.15723H161.251V15ZM167.459 15H168.564V8.15723H167.459V15ZM163.695 11.2676C164.59 11.2676 165.162 11.8198 165.162 12.6704V12.6831C165.162 13.5273 164.597 14.0859 163.695 14.0859H162.356V11.2676H163.695ZM170.735 15H173.648C175.121 15 175.991 14.2256 175.991 13.0386V13.0259C175.991 12.2324 175.438 11.623 174.569 11.5024V11.4009C175.21 11.2676 175.686 10.6265 175.686 9.94727V9.93457C175.686 8.86182 174.931 8.15723 173.636 8.15723H170.735V15ZM171.839 11.0518V9.07129H173.477C174.245 9.07129 174.588 9.46484 174.588 10.0488V10.0615C174.588 10.709 174.188 11.0518 173.299 11.0518H171.839ZM171.839 14.0859V11.9658H173.395C174.378 11.9658 174.867 12.2832 174.867 13.0068V13.0195C174.867 13.7051 174.442 14.0859 173.604 14.0859H171.839ZM180.612 15.1206C182.561 15.1206 183.767 13.7749 183.767 11.585V11.5723C183.767 9.37598 182.561 8.03662 180.612 8.03662C178.663 8.03662 177.457 9.37598 177.457 11.5723V11.585C177.457 13.7749 178.663 15.1206 180.612 15.1206ZM180.612 14.1431C179.317 14.1431 178.587 13.1973 178.587 11.585V11.5723C178.587 9.95361 179.317 9.01416 180.612 9.01416C181.907 9.01416 182.637 9.95361 182.637 11.5723V11.585C182.637 13.1973 181.907 14.1431 180.612 14.1431ZM185.601 15H188.515C189.987 15 190.857 14.2256 190.857 13.0386V13.0259C190.857 12.2324 190.305 11.623 189.435 11.5024V11.4009C190.076 11.2676 190.552 10.6265 190.552 9.94727V9.93457C190.552 8.86182 189.797 8.15723 188.502 8.15723H185.601V15ZM186.706 11.0518V9.07129H188.343C189.111 9.07129 189.454 9.46484 189.454 10.0488V10.0615C189.454 10.709 189.054 11.0518 188.166 11.0518H186.706ZM186.706 14.0859V11.9658H188.261C189.245 11.9658 189.733 12.2832 189.733 13.0068V13.0195C189.733 13.7051 189.308 14.0859 188.47 14.0859H186.706Z" fill="#454F5B"/>
</svg>
